<mxfile host="app.diagrams.net" agent="Mozilla/5.0 (Windows NT 10.0; Win64; x64; rv:143.0) Gecko/20100101 Firefox/143.0" version="28.2.5">
  <diagram id="C5RBs43oDa-KdzZeNtuy" name="Page-1">
    <mxGraphModel dx="612" dy="719" grid="1" gridSize="10" guides="1" tooltips="1" connect="1" arrows="1" fold="1" page="1" pageScale="1" pageWidth="827" pageHeight="1169" math="0" shadow="0">
      <root>
        <mxCell id="WIyWlLk6GJQsqaUBKTNV-0" />
        <mxCell id="WIyWlLk6GJQsqaUBKTNV-1" parent="WIyWlLk6GJQsqaUBKTNV-0" />
        <mxCell id="O4xx6mC76rvQ0KCR2Um3-0" style="edgeStyle=orthogonalEdgeStyle;rounded=0;orthogonalLoop=1;jettySize=auto;html=1;exitX=0.5;exitY=1;exitDx=0;exitDy=0;entryX=0.5;entryY=0;entryDx=0;entryDy=0;" edge="1" parent="WIyWlLk6GJQsqaUBKTNV-1" source="O4xx6mC76rvQ0KCR2Um3-1" target="O4xx6mC76rvQ0KCR2Um3-3">
          <mxGeometry relative="1" as="geometry" />
        </mxCell>
        <mxCell id="O4xx6mC76rvQ0KCR2Um3-1" value="START" style="rounded=1;whiteSpace=wrap;html=1;arcSize=50;" vertex="1" parent="WIyWlLk6GJQsqaUBKTNV-1">
          <mxGeometry x="45" y="40" width="110" height="40" as="geometry" />
        </mxCell>
        <mxCell id="O4xx6mC76rvQ0KCR2Um3-2" value="" style="edgeStyle=orthogonalEdgeStyle;rounded=0;orthogonalLoop=1;jettySize=auto;html=1;entryX=0.5;entryY=0;entryDx=0;entryDy=0;" edge="1" parent="WIyWlLk6GJQsqaUBKTNV-1" source="O4xx6mC76rvQ0KCR2Um3-3" target="O4xx6mC76rvQ0KCR2Um3-8">
          <mxGeometry relative="1" as="geometry" />
        </mxCell>
        <mxCell id="O4xx6mC76rvQ0KCR2Um3-3" value="Declarations:&lt;div&gt;careerYears&lt;br&gt;annualSavings&lt;br&gt;retiredFund&lt;br&gt;SIMPLE_INTEREST = 0.03&lt;br&gt;RETIRED_COST = 60,000&lt;/div&gt;" style="rounded=0;whiteSpace=wrap;html=1;" vertex="1" parent="WIyWlLk6GJQsqaUBKTNV-1">
          <mxGeometry x="10.25" y="110" width="180" height="100" as="geometry" />
        </mxCell>
        <mxCell id="O4xx6mC76rvQ0KCR2Um3-5" value="" style="swimlane;whiteSpace=wrap;html=1;" vertex="1" parent="WIyWlLk6GJQsqaUBKTNV-1">
          <mxGeometry x="194.75" y="445" width="119.5" height="60" as="geometry" />
        </mxCell>
        <mxCell id="O4xx6mC76rvQ0KCR2Um3-6" value="&lt;font style=&quot;font-size: 12px;&quot;&gt;spendLoop ()&lt;/font&gt;" style="text;html=1;align=center;verticalAlign=middle;resizable=0;points=[];autosize=1;strokeColor=none;fillColor=none;fontSize=16;" vertex="1" parent="O4xx6mC76rvQ0KCR2Um3-5">
          <mxGeometry x="14.75" y="25" width="90" height="30" as="geometry" />
        </mxCell>
        <mxCell id="O4xx6mC76rvQ0KCR2Um3-45" style="edgeStyle=orthogonalEdgeStyle;rounded=0;orthogonalLoop=1;jettySize=auto;html=1;exitX=0.5;exitY=1;exitDx=0;exitDy=0;entryX=0.5;entryY=0;entryDx=0;entryDy=0;" edge="1" parent="WIyWlLk6GJQsqaUBKTNV-1" source="O4xx6mC76rvQ0KCR2Um3-8" target="O4xx6mC76rvQ0KCR2Um3-15">
          <mxGeometry relative="1" as="geometry" />
        </mxCell>
        <mxCell id="O4xx6mC76rvQ0KCR2Um3-8" value="" style="swimlane;whiteSpace=wrap;html=1;" vertex="1" parent="WIyWlLk6GJQsqaUBKTNV-1">
          <mxGeometry x="40.5" y="350" width="119.5" height="60" as="geometry" />
        </mxCell>
        <mxCell id="O4xx6mC76rvQ0KCR2Um3-9" value="&lt;font style=&quot;font-size: 12px;&quot;&gt;setup ()&lt;/font&gt;" style="text;html=1;align=center;verticalAlign=middle;resizable=0;points=[];autosize=1;strokeColor=none;fillColor=none;fontSize=16;" vertex="1" parent="O4xx6mC76rvQ0KCR2Um3-8">
          <mxGeometry x="29.75" y="25" width="60" height="30" as="geometry" />
        </mxCell>
        <mxCell id="O4xx6mC76rvQ0KCR2Um3-10" value="END" style="rounded=1;whiteSpace=wrap;html=1;arcSize=50;" vertex="1" parent="WIyWlLk6GJQsqaUBKTNV-1">
          <mxGeometry x="45.25" y="550" width="110" height="40" as="geometry" />
        </mxCell>
        <mxCell id="O4xx6mC76rvQ0KCR2Um3-11" style="edgeStyle=orthogonalEdgeStyle;rounded=0;orthogonalLoop=1;jettySize=auto;html=1;exitX=1;exitY=0.5;exitDx=0;exitDy=0;entryX=0;entryY=0.5;entryDx=0;entryDy=0;" edge="1" parent="WIyWlLk6GJQsqaUBKTNV-1" source="O4xx6mC76rvQ0KCR2Um3-15" target="O4xx6mC76rvQ0KCR2Um3-5">
          <mxGeometry relative="1" as="geometry" />
        </mxCell>
        <mxCell id="O4xx6mC76rvQ0KCR2Um3-12" value="No" style="edgeLabel;html=1;align=center;verticalAlign=middle;resizable=0;points=[];" vertex="1" connectable="0" parent="O4xx6mC76rvQ0KCR2Um3-11">
          <mxGeometry x="-0.3067" y="1" relative="1" as="geometry">
            <mxPoint x="-7" y="-9" as="offset" />
          </mxGeometry>
        </mxCell>
        <mxCell id="O4xx6mC76rvQ0KCR2Um3-13" style="edgeStyle=orthogonalEdgeStyle;rounded=0;orthogonalLoop=1;jettySize=auto;html=1;exitX=0.5;exitY=1;exitDx=0;exitDy=0;entryX=0.5;entryY=0;entryDx=0;entryDy=0;" edge="1" parent="WIyWlLk6GJQsqaUBKTNV-1" source="O4xx6mC76rvQ0KCR2Um3-15" target="O4xx6mC76rvQ0KCR2Um3-10">
          <mxGeometry relative="1" as="geometry">
            <mxPoint x="100.24999999999989" y="551.45" as="targetPoint" />
          </mxGeometry>
        </mxCell>
        <mxCell id="O4xx6mC76rvQ0KCR2Um3-14" value="Yes" style="edgeLabel;html=1;align=center;verticalAlign=middle;resizable=0;points=[];" vertex="1" connectable="0" parent="O4xx6mC76rvQ0KCR2Um3-13">
          <mxGeometry x="-0.4056" y="-1" relative="1" as="geometry">
            <mxPoint x="16" y="1" as="offset" />
          </mxGeometry>
        </mxCell>
        <mxCell id="O4xx6mC76rvQ0KCR2Um3-15" value="retiredFund&lt;br&gt;&amp;lt;= 0?" style="rhombus;whiteSpace=wrap;html=1;" vertex="1" parent="WIyWlLk6GJQsqaUBKTNV-1">
          <mxGeometry x="55.12" y="430" width="89.75" height="90" as="geometry" />
        </mxCell>
        <mxCell id="O4xx6mC76rvQ0KCR2Um3-16" style="edgeStyle=none;curved=1;rounded=0;orthogonalLoop=1;jettySize=auto;html=1;exitX=0.5;exitY=1;exitDx=0;exitDy=0;entryX=0.5;entryY=0;entryDx=0;entryDy=0;fontSize=12;startSize=8;endSize=8;" edge="1" parent="WIyWlLk6GJQsqaUBKTNV-1" source="O4xx6mC76rvQ0KCR2Um3-17" target="O4xx6mC76rvQ0KCR2Um3-19">
          <mxGeometry relative="1" as="geometry" />
        </mxCell>
        <mxCell id="O4xx6mC76rvQ0KCR2Um3-17" value="setup ()" style="rounded=1;whiteSpace=wrap;html=1;arcSize=50;" vertex="1" parent="WIyWlLk6GJQsqaUBKTNV-1">
          <mxGeometry x="260" y="40" width="110" height="40" as="geometry" />
        </mxCell>
        <mxCell id="O4xx6mC76rvQ0KCR2Um3-18" style="edgeStyle=none;curved=1;rounded=0;orthogonalLoop=1;jettySize=auto;html=1;exitX=0.5;exitY=1;exitDx=0;exitDy=0;entryX=0.5;entryY=0;entryDx=0;entryDy=0;fontSize=12;startSize=8;endSize=8;" edge="1" parent="WIyWlLk6GJQsqaUBKTNV-1" source="O4xx6mC76rvQ0KCR2Um3-19" target="O4xx6mC76rvQ0KCR2Um3-21">
          <mxGeometry relative="1" as="geometry" />
        </mxCell>
        <mxCell id="O4xx6mC76rvQ0KCR2Um3-19" value="output &quot;Please enter&lt;br&gt;&amp;nbsp;the number of years&lt;br&gt;remaining in your career.&quot;" style="shape=parallelogram;perimeter=parallelogramPerimeter;whiteSpace=wrap;html=1;fixedSize=1;" vertex="1" parent="WIyWlLk6GJQsqaUBKTNV-1">
          <mxGeometry x="230" y="99.83" width="170" height="60" as="geometry" />
        </mxCell>
        <mxCell id="O4xx6mC76rvQ0KCR2Um3-50" style="edgeStyle=orthogonalEdgeStyle;rounded=0;orthogonalLoop=1;jettySize=auto;html=1;exitX=0.5;exitY=1;exitDx=0;exitDy=0;" edge="1" parent="WIyWlLk6GJQsqaUBKTNV-1" source="O4xx6mC76rvQ0KCR2Um3-21">
          <mxGeometry relative="1" as="geometry">
            <mxPoint x="314.9565217391305" y="240" as="targetPoint" />
          </mxGeometry>
        </mxCell>
        <mxCell id="O4xx6mC76rvQ0KCR2Um3-21" value="input&lt;br&gt;careerYears" style="shape=parallelogram;perimeter=parallelogramPerimeter;whiteSpace=wrap;html=1;fixedSize=1;" vertex="1" parent="WIyWlLk6GJQsqaUBKTNV-1">
          <mxGeometry x="255" y="180" width="120" height="40" as="geometry" />
        </mxCell>
        <mxCell id="O4xx6mC76rvQ0KCR2Um3-22" value="RETURN" style="rounded=1;whiteSpace=wrap;html=1;arcSize=50;" vertex="1" parent="WIyWlLk6GJQsqaUBKTNV-1">
          <mxGeometry x="260" y="380.17" width="110" height="39.83" as="geometry" />
        </mxCell>
        <mxCell id="O4xx6mC76rvQ0KCR2Um3-23" value="" style="edgeStyle=orthogonalEdgeStyle;rounded=0;orthogonalLoop=1;jettySize=auto;html=1;" edge="1" parent="WIyWlLk6GJQsqaUBKTNV-1" source="O4xx6mC76rvQ0KCR2Um3-24" target="O4xx6mC76rvQ0KCR2Um3-26">
          <mxGeometry relative="1" as="geometry" />
        </mxCell>
        <mxCell id="O4xx6mC76rvQ0KCR2Um3-24" value="spendLoop ()" style="rounded=1;whiteSpace=wrap;html=1;arcSize=50;" vertex="1" parent="WIyWlLk6GJQsqaUBKTNV-1">
          <mxGeometry x="542.5" y="39.83" width="110" height="40" as="geometry" />
        </mxCell>
        <mxCell id="O4xx6mC76rvQ0KCR2Um3-25" style="edgeStyle=orthogonalEdgeStyle;rounded=0;orthogonalLoop=1;jettySize=auto;html=1;exitX=0.5;exitY=1;exitDx=0;exitDy=0;entryX=0.5;entryY=0;entryDx=0;entryDy=0;" edge="1" parent="WIyWlLk6GJQsqaUBKTNV-1" source="O4xx6mC76rvQ0KCR2Um3-26" target="O4xx6mC76rvQ0KCR2Um3-28">
          <mxGeometry relative="1" as="geometry" />
        </mxCell>
        <mxCell id="O4xx6mC76rvQ0KCR2Um3-26" value="output &quot;Please enter&lt;br&gt;&amp;nbsp;your next number or&quot;,&lt;br&gt;QUIT, &quot;to finish.&quot;" style="shape=parallelogram;perimeter=parallelogramPerimeter;whiteSpace=wrap;html=1;fixedSize=1;" vertex="1" parent="WIyWlLk6GJQsqaUBKTNV-1">
          <mxGeometry x="520" y="99.83" width="155" height="60" as="geometry" />
        </mxCell>
        <mxCell id="O4xx6mC76rvQ0KCR2Um3-27" style="edgeStyle=orthogonalEdgeStyle;rounded=0;orthogonalLoop=1;jettySize=auto;html=1;exitX=0.5;exitY=1;exitDx=0;exitDy=0;entryX=0.5;entryY=0;entryDx=0;entryDy=0;" edge="1" parent="WIyWlLk6GJQsqaUBKTNV-1" source="O4xx6mC76rvQ0KCR2Um3-28">
          <mxGeometry relative="1" as="geometry">
            <mxPoint x="597.5" y="260.17" as="targetPoint" />
          </mxGeometry>
        </mxCell>
        <mxCell id="O4xx6mC76rvQ0KCR2Um3-28" value="input userNum" style="shape=parallelogram;perimeter=parallelogramPerimeter;whiteSpace=wrap;html=1;fixedSize=1;" vertex="1" parent="WIyWlLk6GJQsqaUBKTNV-1">
          <mxGeometry x="537.5" y="180.17000000000004" width="120" height="60" as="geometry" />
        </mxCell>
        <mxCell id="O4xx6mC76rvQ0KCR2Um3-29" style="edgeStyle=none;curved=1;rounded=0;orthogonalLoop=1;jettySize=auto;html=1;entryX=0.5;entryY=0;entryDx=0;entryDy=0;fontSize=12;startSize=8;endSize=8;" edge="1" parent="WIyWlLk6GJQsqaUBKTNV-1">
          <mxGeometry relative="1" as="geometry">
            <mxPoint x="592.5" y="259.8300000000001" as="sourcePoint" />
            <mxPoint x="592.5" y="259.8300000000001" as="targetPoint" />
          </mxGeometry>
        </mxCell>
        <mxCell id="O4xx6mC76rvQ0KCR2Um3-30" value="RETURN" style="rounded=1;whiteSpace=wrap;html=1;arcSize=50;" vertex="1" parent="WIyWlLk6GJQsqaUBKTNV-1">
          <mxGeometry x="542.5" y="340.1699999999999" width="110" height="40" as="geometry" />
        </mxCell>
        <mxCell id="O4xx6mC76rvQ0KCR2Um3-31" value="" style="edgeStyle=orthogonalEdgeStyle;rounded=0;orthogonalLoop=1;jettySize=auto;html=1;" edge="1" parent="WIyWlLk6GJQsqaUBKTNV-1" source="O4xx6mC76rvQ0KCR2Um3-32" target="O4xx6mC76rvQ0KCR2Um3-30">
          <mxGeometry relative="1" as="geometry" />
        </mxCell>
        <mxCell id="O4xx6mC76rvQ0KCR2Um3-32" value="numSum = numSum + userNum" style="rounded=0;whiteSpace=wrap;html=1;" vertex="1" parent="WIyWlLk6GJQsqaUBKTNV-1">
          <mxGeometry x="527.5" y="260.17" width="140" height="60" as="geometry" />
        </mxCell>
        <mxCell id="O4xx6mC76rvQ0KCR2Um3-46" style="edgeStyle=none;curved=1;rounded=0;orthogonalLoop=1;jettySize=auto;html=1;exitX=0.5;exitY=1;exitDx=0;exitDy=0;entryX=0.5;entryY=0;entryDx=0;entryDy=0;fontSize=12;startSize=8;endSize=8;" edge="1" parent="WIyWlLk6GJQsqaUBKTNV-1" source="O4xx6mC76rvQ0KCR2Um3-47" target="O4xx6mC76rvQ0KCR2Um3-48">
          <mxGeometry relative="1" as="geometry" />
        </mxCell>
        <mxCell id="O4xx6mC76rvQ0KCR2Um3-47" value="output &quot;Please enter&lt;br&gt;&amp;nbsp;the amount (in $) you can&lt;br&gt;save annually.&quot;" style="shape=parallelogram;perimeter=parallelogramPerimeter;whiteSpace=wrap;html=1;fixedSize=1;" vertex="1" parent="WIyWlLk6GJQsqaUBKTNV-1">
          <mxGeometry x="230" y="240.17" width="170" height="60" as="geometry" />
        </mxCell>
        <mxCell id="O4xx6mC76rvQ0KCR2Um3-51" value="" style="edgeStyle=orthogonalEdgeStyle;rounded=0;orthogonalLoop=1;jettySize=auto;html=1;" edge="1" parent="WIyWlLk6GJQsqaUBKTNV-1" source="O4xx6mC76rvQ0KCR2Um3-48" target="O4xx6mC76rvQ0KCR2Um3-22">
          <mxGeometry relative="1" as="geometry" />
        </mxCell>
        <mxCell id="O4xx6mC76rvQ0KCR2Um3-48" value="input&lt;br&gt;annualSavings" style="shape=parallelogram;perimeter=parallelogramPerimeter;whiteSpace=wrap;html=1;fixedSize=1;" vertex="1" parent="WIyWlLk6GJQsqaUBKTNV-1">
          <mxGeometry x="255" y="320.3399999999999" width="120" height="39.83" as="geometry" />
        </mxCell>
      </root>
    </mxGraphModel>
  </diagram>
</mxfile>
